<mxfile host="Electron" modified="2024-09-24T22:00:20.374Z" agent="Mozilla/5.0 (Windows NT 10.0; Win64; x64) AppleWebKit/537.36 (KHTML, like Gecko) draw.io/22.1.2 Chrome/114.0.5735.289 Electron/25.9.4 Safari/537.36" etag="KryGiOLrKSPHpzQ7-cVN" version="22.1.2" type="device">
  <diagram name="Page-1" id="H2MZtMzQKbWlYWSilOhx">
    <mxGraphModel dx="875" dy="557" grid="1" gridSize="10" guides="1" tooltips="1" connect="1" arrows="1" fold="1" page="1" pageScale="1" pageWidth="1920" pageHeight="1200" math="0" shadow="0">
      <root>
        <mxCell id="0" />
        <mxCell id="1" parent="0" />
        <mxCell id="rKSSLVhyiYwa8LZw7dfp-2" style="edgeStyle=orthogonalEdgeStyle;rounded=0;orthogonalLoop=1;jettySize=auto;html=1;entryX=0.5;entryY=0;entryDx=0;entryDy=0;" edge="1" parent="1" source="OE_Azm1usY9wM7hYHkBU-1" target="rKSSLVhyiYwa8LZw7dfp-1">
          <mxGeometry relative="1" as="geometry" />
        </mxCell>
        <mxCell id="OE_Azm1usY9wM7hYHkBU-1" value="Start" style="rounded=1;whiteSpace=wrap;html=1;" parent="1" vertex="1">
          <mxGeometry x="480" y="100" width="120" height="60" as="geometry" />
        </mxCell>
        <mxCell id="rKSSLVhyiYwa8LZw7dfp-10" style="edgeStyle=orthogonalEdgeStyle;rounded=0;orthogonalLoop=1;jettySize=auto;html=1;entryX=0.5;entryY=0;entryDx=0;entryDy=0;" edge="1" parent="1" source="rKSSLVhyiYwa8LZw7dfp-1" target="rKSSLVhyiYwa8LZw7dfp-3">
          <mxGeometry relative="1" as="geometry">
            <Array as="points">
              <mxPoint x="660" y="250" />
            </Array>
          </mxGeometry>
        </mxCell>
        <mxCell id="rKSSLVhyiYwa8LZw7dfp-1" value="Fix up Station" style="rounded=1;whiteSpace=wrap;html=1;" vertex="1" parent="1">
          <mxGeometry x="480" y="220" width="120" height="60" as="geometry" />
        </mxCell>
        <mxCell id="rKSSLVhyiYwa8LZw7dfp-11" style="edgeStyle=orthogonalEdgeStyle;rounded=0;orthogonalLoop=1;jettySize=auto;html=1;entryX=0.5;entryY=0;entryDx=0;entryDy=0;" edge="1" parent="1" source="rKSSLVhyiYwa8LZw7dfp-3" target="rKSSLVhyiYwa8LZw7dfp-4">
          <mxGeometry relative="1" as="geometry" />
        </mxCell>
        <mxCell id="rKSSLVhyiYwa8LZw7dfp-3" value="Establish Workshops&lt;br&gt;(e.g. hydroponics)" style="rounded=1;whiteSpace=wrap;html=1;" vertex="1" parent="1">
          <mxGeometry x="600" y="310" width="120" height="60" as="geometry" />
        </mxCell>
        <mxCell id="rKSSLVhyiYwa8LZw7dfp-12" style="edgeStyle=orthogonalEdgeStyle;rounded=0;orthogonalLoop=1;jettySize=auto;html=1;entryX=1;entryY=0.5;entryDx=0;entryDy=0;" edge="1" parent="1" source="rKSSLVhyiYwa8LZw7dfp-4" target="rKSSLVhyiYwa8LZw7dfp-5">
          <mxGeometry relative="1" as="geometry" />
        </mxCell>
        <mxCell id="rKSSLVhyiYwa8LZw7dfp-4" value="Make sure civilians are happy" style="rounded=1;whiteSpace=wrap;html=1;" vertex="1" parent="1">
          <mxGeometry x="600" y="430" width="120" height="60" as="geometry" />
        </mxCell>
        <mxCell id="rKSSLVhyiYwa8LZw7dfp-13" style="edgeStyle=orthogonalEdgeStyle;rounded=0;orthogonalLoop=1;jettySize=auto;html=1;entryX=0.5;entryY=1;entryDx=0;entryDy=0;" edge="1" parent="1" source="rKSSLVhyiYwa8LZw7dfp-5" target="rKSSLVhyiYwa8LZw7dfp-7">
          <mxGeometry relative="1" as="geometry">
            <Array as="points">
              <mxPoint x="420" y="550" />
            </Array>
          </mxGeometry>
        </mxCell>
        <mxCell id="rKSSLVhyiYwa8LZw7dfp-5" value="Upgrade Technologies (e.g. networks/robots)" style="rounded=1;whiteSpace=wrap;html=1;" vertex="1" parent="1">
          <mxGeometry x="480" y="520" width="120" height="60" as="geometry" />
        </mxCell>
        <mxCell id="rKSSLVhyiYwa8LZw7dfp-14" style="edgeStyle=orthogonalEdgeStyle;rounded=0;orthogonalLoop=1;jettySize=auto;html=1;entryX=0.5;entryY=1;entryDx=0;entryDy=0;" edge="1" parent="1" source="rKSSLVhyiYwa8LZw7dfp-7" target="rKSSLVhyiYwa8LZw7dfp-8">
          <mxGeometry relative="1" as="geometry" />
        </mxCell>
        <mxCell id="rKSSLVhyiYwa8LZw7dfp-7" value="Get Resources" style="rounded=1;whiteSpace=wrap;html=1;" vertex="1" parent="1">
          <mxGeometry x="360" y="430" width="120" height="60" as="geometry" />
        </mxCell>
        <mxCell id="rKSSLVhyiYwa8LZw7dfp-15" style="edgeStyle=orthogonalEdgeStyle;rounded=0;orthogonalLoop=1;jettySize=auto;html=1;entryX=0;entryY=0.5;entryDx=0;entryDy=0;" edge="1" parent="1" source="rKSSLVhyiYwa8LZw7dfp-8" target="rKSSLVhyiYwa8LZw7dfp-1">
          <mxGeometry relative="1" as="geometry" />
        </mxCell>
        <mxCell id="rKSSLVhyiYwa8LZw7dfp-8" value="Fix Issues" style="rounded=1;whiteSpace=wrap;html=1;" vertex="1" parent="1">
          <mxGeometry x="360" y="310" width="120" height="60" as="geometry" />
        </mxCell>
      </root>
    </mxGraphModel>
  </diagram>
</mxfile>
